<?xml version="1.0" encoding="utf-8"?>
<!-- Generator: Adobe Illustrator 17.1.0, SVG Export Plug-In . SVG Version: 6.00 Build 0)  -->
<!DOCTYPE svg PUBLIC "-//W3C//DTD SVG 1.1//EN" "http://www.w3.org/Graphics/SVG/1.1/DTD/svg11.dtd">
<svg version="1.1" id="Layer_1" xmlns="http://www.w3.org/2000/svg" xmlns:xlink="http://www.w3.org/1999/xlink" x="0px" y="0px"
	 viewBox="0 0 725 407" enable-background="new 0 0 725 407" xml:space="preserve">
<path fill="#000" d="M703.9,119.8L368.9,5c-2.6-0.9-5.3-1.3-8-1.3c-2.7,0-5.5,0.5-8.1,1.4L21,119.8c-9.9,3.4-16.6,12.8-16.6,23.3
	c0,10.5,6.6,19.9,16.5,23.4l134.6,47.9V312c0,10.2,6.3,19.4,15.8,23.1L352,404.4c2.8,1.1,5.8,1.6,8.8,1.6c3,0,5.9-0.5,8.7-1.6
	l183.6-69.3c9.6-3.6,16.3-12.8,16.3-23.1v-97.9l67-23.6v48.2c-13,5-22,17.3-22,31.8c0,18.8,15.2,34.1,34,34.1s34.4-15.3,34.4-34.1
	c0-14.5-8.5-26.8-21.5-31.8v-56.9l43-15.3c9.9-3.5,16.4-12.9,16.3-23.4C720.8,132.5,713.9,123.2,703.9,119.8z M648.4,279.9
	c-5.2,0-9.4-4.2-9.4-9.4s4.2-9.4,9.4-9.4c5.2,0,9.4,4.2,9.4,9.4S653.6,279.9,648.4,279.9z M544.5,312l-183.3,69.3L180.5,312v-88.8
	l172.2,61.4c2.7,1,5.4,1.4,8.2,1.4c2.8,0,5.7-0.5,8.3-1.4l175.2-61.7V312z M564.7,189.4C564.7,189.4,564.7,189.4,564.7,189.4
	l-39.2,13.8l-164.7,58l-163.1-58l-38.3-13.6c0,0,0,0,0,0L29.1,143.2L360.9,28.4l335.1,114.8L564.7,189.4z"/>
</svg>
