<?xml version="1.0" encoding="utf-8"?>
<!-- Generator: Adobe Illustrator 19.2.1, SVG Export Plug-In . SVG Version: 6.00 Build 0)  -->
<svg version="1.1" id="Layer_1" xmlns="http://www.w3.org/2000/svg" xmlns:xlink="http://www.w3.org/1999/xlink" x="0px" y="0px"
	 viewBox="0 0 274 266" style="enable-background:new 0 0 274 266;" xml:space="preserve">
<style type="text/css">
	.st0{fill:#A9B1CE;}
</style>
<path class="st0" d="M3.7,75.7c0-2.6,0-5.3,0-7.9c0.1-0.3,0.2-0.7,0.3-1c0.4-2.9,0.6-5.9,1.2-8.8c6.2-26.5,22.2-44,48.2-52.3
	c11.2-3.6,22.7-3.4,34.2-2c11.5,1.4,22,5.6,31.5,12.3c7.7,5.4,13.9,12.2,17.9,20.7c2.2,4.7,3.4,9.6,4.1,14.7c0-14,0-28,0-42
	c0.6,0,1.1-0.1,1.6-0.1c10.5,0,21,0,31.6,0c2.1,0,1.8-0.1,1.8,1.8c0,23.2,0,46.5,0,69.7c0,7.7,3,14,9.3,18.4
	c10.9,7.5,22.5,8.4,34.4,2.8c9.4-4.4,14.1-11.8,14-22.4c-0.2-22.9,0-45.8-0.1-68.8c0-1.2,0.3-1.6,1.5-1.6c10.7,0,21.4,0,32.2,0
	c0.5,0,0.9,0.1,1.5,0.1c0,0.7,0,1.2,0,1.8c0,25.9,0,51.8,0,77.6c0,9.7-3,18.3-8.7,26c-6.2,8.4-14.3,14.4-23.7,18.8
	c-0.4,0.2-0.9,0.4-1.3,0.6c0,0.1,0.1,0.2,0.1,0.3c11.1,0,22.3,0,33.5,0c-0.2,0.5-0.3,0.8-0.5,1.1c-2.9,5.9-5.8,11.8-8.7,17.8
	c-12.2,25-24.5,49.9-36.7,74.9c-0.3,0.6-0.5,1.4-0.5,2c0,10.2,0,20.5,0,30.7c0,0.5,0,0.9,0,1.4c-11.8,0-23.5,0-35.2,0
	c0-0.6,0-1.1,0-1.6c0-10.2,0-20.3,0-30.5c0-0.7-0.2-1.4-0.5-2.1c-3.7-7.6-7.4-15.1-11.1-22.7c-10.9-22.3-21.9-44.6-32.8-66.9
	c-0.7-1.3-1.3-2.7-2.1-4.3c11.5,0,22.7,0,33.9,0c-0.3-0.4-0.6-0.6-0.9-0.7c-5.7-2.6-11-6-15.8-10.1c-7.2-6.2-12.7-13.6-15.4-22.8
	c-0.9-2.9-1.3-6-1.9-8.8c0.1-0.1,0-0.1,0,0c0,0.2,0,0.5-0.1,0.7c-0.5,5.6-2,10.8-4.6,15.8c-5,9.6-12.6,16.7-21.9,22.1
	c-2.3,1.3-4.7,2.5-7,3.8c0,0.1,0,0.2,0,0.2c11.2,0,22.3,0,33.4,0c0,42.8,0,85.4,0,127.9c-0.3,0-0.4,0.1-0.6,0.1
	c-10.3,0-20.6,0-30.8,0c-0.4,0-1-0.3-1.3-0.7c-9.8-11.1-19.6-22.2-29.4-33.3c-9.9-11.2-19.7-22.4-29.6-33.5
	c-0.3-0.3-0.6-0.5-0.9-0.8c-0.1,0.1-0.2,0.1-0.3,0.2c0,22.7,0,45.4,0,68.1c-11.7,0-23.3,0-35,0c0-42.7,0-85.3,0-128.1
	c10.3,0,20.5,0,30.7,0c-0.2-0.4-0.4-0.6-0.7-0.7c-7.5-3.6-14.2-8.4-19.9-14.4C12.3,108.1,6,94.8,4.2,79.3
	C4.1,78.1,3.9,76.9,3.7,75.7z M121.7,89.4c5.9,0,11.8,0,17.8,0c1.6,0,1.6,0,1.6-1.6c0-10.7,0-21.4,0-32.2c0-1.6,0-1.6-1.6-1.6
	c-11.9,0-23.8,0-35.6,0c-0.9,0-1.5-0.2-2-1.1c-8.7-13.3-25.1-18.5-39.5-12.5c-18.8,7.8-26.4,31-15.7,48.6
	c7.1,11.8,17.8,17.4,31.6,16c10.2-1,18.1-6.3,23.8-14.9c0.4-0.7,0.9-0.9,1.6-0.9C109.6,89.4,115.7,89.4,121.7,89.4z M44.3,134.8
	c20.4,22.8,40.8,45.5,61.1,68.3c0.1-0.1,0.2-0.1,0.2-0.2c0-22.6,0-45.2,0-68c-9.9,4.1-20.2,5.7-30.8,5.7
	C64.3,140.6,54.1,138.9,44.3,134.8z M176.2,134.9c9.6,19.6,19.1,39,28.7,58.6c9.6-19.6,19.1-38.9,28.6-58.4
	C214.4,142.5,195.5,142.5,176.2,134.9z"/>
</svg>
