<?xml version="1.0" encoding="utf-8"?>
<!-- Generator: Adobe Illustrator 17.1.0, SVG Export Plug-In . SVG Version: 6.00 Build 0)  -->
<!DOCTYPE svg PUBLIC "-//W3C//DTD SVG 1.1//EN" "http://www.w3.org/Graphics/SVG/1.1/DTD/svg11.dtd">
<svg version="1.1" id="Layer_1" xmlns="http://www.w3.org/2000/svg" xmlns:xlink="http://www.w3.org/1999/xlink" x="0px" y="0px"
	 viewBox="-0.5 89 612 612" enable-background="new -0.5 89 612 612" xml:space="preserve">
<defs>
	<filter id="Adobe_OpacityMaskFilter" filterUnits="userSpaceOnUse" x="-0.5" y="89" width="612" height="612">
		<feColorMatrix  type="matrix" values="1 0 0 0 0  0 1 0 0 0  0 0 1 0 0  0 0 0 1 0"/>
	</filter>
</defs>
<mask maskUnits="userSpaceOnUse" x="-0.5" y="89" width="612" height="612" id="SVGID_1_">
	<g filter="url(#Adobe_OpacityMaskFilter)">
		
			<radialGradient id="SVGID_2_" cx="583.3" cy="210.4" r="529.0997" gradientTransform="matrix(0.524 0 0 -0.524 -3.051758e-05 504.9863)" gradientUnits="userSpaceOnUse">
			<stop  offset="0" style="stop-color:#FFFFFF"/>
			<stop  offset="9.537476e-02" style="stop-color:#F9F9F9"/>
			<stop  offset="0.2198" style="stop-color:#E9E9E9"/>
			<stop  offset="0.3603" style="stop-color:#CECECE"/>
			<stop  offset="0.5126" style="stop-color:#A8A8A8"/>
			<stop  offset="0.6746" style="stop-color:#787878"/>
			<stop  offset="0.8418" style="stop-color:#3E3E3E"/>
			<stop  offset="1" style="stop-color:#000000"/>
		</radialGradient>
		<circle fill="url(#SVGID_2_)" cx="305.6" cy="394.7" r="298.5"/>
	</g>
</mask>
<g mask="url(#SVGID_1_)">
	<g>
		<polygon fill="#FFFFFF" points="307.4,392.9 304.4,392.9 291.2,89 320.6,89 		"/>
		<polygon fill="#FFFFFF" points="304.4,396.5 307.4,396.5 320.6,701 291.2,701 		"/>
	</g>
	<g>
		<polygon fill="#FFFFFF" points="306.3,392 303.6,393.5 140.2,136.8 165.6,122.1 		"/>
		<polygon fill="#FFFFFF" points="305.6,396.9 308.2,395.4 471.6,652.1 446.2,666.8 		"/>
	</g>
	<g>
		<polygon fill="#FFFFFF" points="305,392.2 303.5,394.8 33.6,254.2 48.3,228.7 		"/>
		<polygon fill="#FFFFFF" points="306.8,396.7 308.4,394.2 578.3,534.7 563.6,560.2 		"/>
	</g>
	<g>
		<polygon fill="#FFFFFF" points="303.9,393 303.9,396 -0.5,409.2 -0.5,379.8 		"/>
		<polygon fill="#FFFFFF" points="307.6,396 307.6,393 611.5,379.8 611.5,409.2 		"/>
	</g>
	<g>
		<polygon fill="#FFFFFF" points="303.5,394.2 305,396.7 48.3,560.2 33.6,534.7 		"/>
		<polygon fill="#FFFFFF" points="308.4,394.8 306.8,392.2 563.6,228.7 578.3,254.2 		"/>
	</g>
	<g>
		<polygon fill="#FFFFFF" points="303.6,395.4 306.3,396.9 165.6,666.8 140.2,652.1 		"/>
		<polygon fill="#FFFFFF" points="308.2,393.5 305.6,392 446.2,122.1 471.6,136.8 		"/>
	</g>
	<g>
		<polygon fill="#FFFFFF" points="306.9,392.2 304,393 212.5,102.7 240.9,95.1 		"/>
		<polygon fill="#FFFFFF" points="305,396.7 307.9,395.9 399.3,686.2 370.9,693.8 		"/>
	</g>
	<g>
		<polygon fill="#FFFFFF" points="305.6,392 303.5,394.2 79.2,188.5 99.9,167.7 		"/>
		<polygon fill="#FFFFFF" points="306.2,396.9 308.4,394.8 532.7,600.5 511.9,621.2 		"/>
	</g>
	<g>
		<polygon fill="#FFFFFF" points="304.4,392.5 303.6,395.4 6.5,329.5 14.1,301.1 		"/>
		<polygon fill="#FFFFFF" points="307.4,396.4 308.2,393.5 605.3,459.5 597.7,487.9 		"/>
	</g>
	<g>
		<polygon fill="#FFFFFF" points="303.6,393.5 304.4,396.4 14.1,487.9 6.5,459.5 		"/>
		<polygon fill="#FFFFFF" points="308.2,395.4 307.4,392.5 597.7,301.1 605.3,329.5 		"/>
	</g>
	<g>
		<polygon fill="#FFFFFF" points="303.5,394.8 305.6,396.9 99.9,621.2 79.2,600.5 		"/>
		<polygon fill="#FFFFFF" points="308.4,394.2 306.2,392 511.9,167.7 532.7,188.5 		"/>
	</g>
	<g>
		<polygon fill="#FFFFFF" points="304,395.9 306.9,396.7 240.9,693.8 212.5,686.2 		"/>
		<polygon fill="#FFFFFF" points="307.9,393 305,392.2 370.9,95.1 399.3,102.7 		"/>
	</g>
</g>
</svg>
