<?xml version="1.0" encoding="utf-8"?>
<!-- Generator: Adobe Illustrator 17.1.0, SVG Export Plug-In . SVG Version: 6.00 Build 0)  -->
<!DOCTYPE svg PUBLIC "-//W3C//DTD SVG 1.1//EN" "http://www.w3.org/Graphics/SVG/1.1/DTD/svg11.dtd">
<svg version="1.1" id="Layer_1" xmlns="http://www.w3.org/2000/svg" xmlns:xlink="http://www.w3.org/1999/xlink" x="0px" y="0px"
	 viewBox="0 0 1168 1168" enable-background="new 0 0 1168 1168" xml:space="preserve">
<defs>
	<filter id="Adobe_OpacityMaskFilter" filterUnits="userSpaceOnUse" x="-1" y="-2" width="1168" height="1168">
		<feColorMatrix  type="matrix" values="1 0 0 0 0  0 1 0 0 0  0 0 1 0 0  0 0 0 1 0"/>
	</filter>
</defs>
<mask maskUnits="userSpaceOnUse" x="-1" y="-2" width="1168" height="1168" id="SVGID_1_">
	<g filter="url(#Adobe_OpacityMaskFilter)">
		<radialGradient id="SVGID_2_" cx="583.3448" cy="581.589" r="529.0738" gradientUnits="userSpaceOnUse">
			<stop  offset="0" style="stop-color:#FFFFFF"/>
			<stop  offset="1" style="stop-color:#000000"/>
		</radialGradient>
		<circle fill="url(#SVGID_2_)" cx="583.3" cy="581.6" r="569.7"/>
	</g>
</mask>
<g mask="url(#SVGID_1_)">
	<g>
		<polygon fill="#FFFFFF" points="586.7,578 581,578 555.8,-2 611.8,-2 		"/>
		<polygon fill="#FFFFFF" points="581,585 586.7,585 611.8,1166 555.8,1166 		"/>
	</g>
	<g>
		<polygon fill="#FFFFFF" points="584.5,576.4 579.5,579.3 267.6,89.3 316.1,61.3 		"/>
		<polygon fill="#FFFFFF" points="583.2,585.7 588.2,582.9 900.1,1072.8 851.6,1100.8 		"/>
	</g>
	<g>
		<polygon fill="#FFFFFF" points="582.1,576.8 579.2,581.7 64.1,313.3 92.1,264.8 		"/>
		<polygon fill="#FFFFFF" points="585.6,585.4 588.5,580.5 1103.6,848.8 1075.6,897.3 		"/>
	</g>
	<g>
		<polygon fill="#FFFFFF" points="580,578.2 580,584 -1,609.1 -1,553.1 		"/>
		<polygon fill="#FFFFFF" points="587,584 587,578.2 1167,553.1 1167,609.1 		"/>
	</g>
	<g>
		<polygon fill="#FFFFFF" points="579.2,580.5 582.1,585.4 92.1,897.3 64.1,848.8 		"/>
		<polygon fill="#FFFFFF" points="588.5,581.7 585.6,576.8 1075.6,264.8 1103.6,313.3 		"/>
	</g>
	<g>
		<polygon fill="#FFFFFF" points="579.5,582.9 584.5,585.7 316.1,1100.8 267.6,1072.8 		"/>
		<polygon fill="#FFFFFF" points="588.2,579.3 583.2,576.4 851.6,61.3 900.1,89.3 		"/>
	</g>
	<g>
		<polygon fill="#FFFFFF" points="585.7,576.8 580.1,578.3 405.6,24.2 459.7,9.7 		"/>
		<polygon fill="#FFFFFF" points="582,585.4 587.6,583.9 762,1137.9 707.9,1152.4 		"/>
	</g>
	<g>
		<polygon fill="#FFFFFF" points="583.3,576.4 579.2,580.5 151.1,187.9 190.7,148.3 		"/>
		<polygon fill="#FFFFFF" points="584.4,585.7 588.5,581.7 1016.6,974.2 977,1013.8 		"/>
	</g>
	<g>
		<polygon fill="#FFFFFF" points="581,577.4 579.5,582.9 12.5,457 27,402.9 		"/>
		<polygon fill="#FFFFFF" points="586.7,584.8 588.2,579.3 1155.2,705.2 1140.7,759.3 		"/>
	</g>
	<g>
		<polygon fill="#FFFFFF" points="579.5,579.3 581,584.8 27,759.3 12.5,705.2 		"/>
		<polygon fill="#FFFFFF" points="588.2,582.9 586.7,577.4 1140.7,402.9 1155.2,457 		"/>
	</g>
	<g>
		<polygon fill="#FFFFFF" points="579.2,581.7 583.3,585.7 190.7,1013.8 151.1,974.2 		"/>
		<polygon fill="#FFFFFF" points="588.5,580.5 584.4,576.4 977,148.3 1016.6,187.9 		"/>
	</g>
	<g>
		<polygon fill="#FFFFFF" points="580.1,583.9 585.7,585.4 459.7,1152.4 405.6,1137.9 		"/>
		<polygon fill="#FFFFFF" points="587.6,578.3 582,576.8 707.9,9.7 762,24.2 		"/>
	</g>
</g>
</svg>
