<?xml version="1.0" encoding="utf-8"?>
<!-- Generator: Adobe Illustrator 19.2.1, SVG Export Plug-In . SVG Version: 6.00 Build 0)  -->
<svg version="1.1" id="Layer_1" xmlns="http://www.w3.org/2000/svg" xmlns:xlink="http://www.w3.org/1999/xlink" x="0px" y="0px"
	 viewBox="0 0 365 100" style="enable-background:new 0 0 365 100;" xml:space="preserve">
<style type="text/css">
	.st0{opacity:0.8;fill:none;stroke:#005ED8;stroke-width:0.5;stroke-miterlimit:10;}
</style>
<line class="st0" x1="69.5" y1="0" x2="69.5" y2="100"/>
<line class="st0" x1="17.4" y1="0" x2="17.4" y2="100"/>
<line class="st0" x1="104.3" y1="0" x2="104.3" y2="100"/>
<line class="st0" x1="139" y1="0" x2="139" y2="100"/>
<line class="st0" x1="173.8" y1="0" x2="173.8" y2="100"/>
<line class="st0" x1="208.6" y1="0" x2="208.6" y2="100"/>
<line class="st0" x1="243.3" y1="0" x2="243.3" y2="100"/>
<line class="st0" x1="34.8" y1="0" x2="34.8" y2="100"/>
<line class="st0" x1="52.1" y1="0" x2="52.1" y2="100"/>
<line class="st0" x1="121.7" y1="0" x2="121.7" y2="100"/>
<line class="st0" x1="86.9" y1="0" x2="86.9" y2="100"/>
<line class="st0" x1="156.4" y1="0" x2="156.4" y2="100"/>
<line class="st0" x1="191.2" y1="0" x2="191.2" y2="100"/>
<line class="st0" x1="226" y1="0" x2="226" y2="100"/>
<line class="st0" x1="260.7" y1="0" x2="260.7" y2="100"/>
<line class="st0" x1="278.1" y1="0" x2="278.1" y2="100"/>
<line class="st0" x1="295.5" y1="0" x2="295.5" y2="100"/>
<line class="st0" x1="312.9" y1="0" x2="312.9" y2="100"/>
<line class="st0" x1="330.2" y1="0" x2="330.2" y2="100"/>
<line class="st0" x1="347.6" y1="0" x2="347.6" y2="100"/>
</svg>
